<svg xmlns="http://www.w3.org/2000/svg" viewBox="0 0 300 300">
    <style>.st0{fill:#1e357a}</style>
    <path class="st0" d="M175 77.8c0-13.6-11.7-25.3-25.3-25.3-13.6 0-25.3 11.7-25.3 25.3s11.7 25.3 25.3 25.3c14.6 0 25.3-10.7 25.3-25.3"/>
    <path class="st0" d="M175 230.3c0-13.6-11.7-25.3-25.3-25.3-13.6 0-25.3 11.7-25.3 25.3s11.7 25.3 25.3 25.3c14.6 0 25.3-10.7 25.3-25.3"/>
    <path class="st0" d="M50.6 154.7c0-13.6-11.7-25.3-25.3-25.3S0 141 0 154.7 11.7 180 25.3 180c14.6.9 25.3-10.8 25.3-25.3"/>
    <path class="st0" d="M300 154.7c0-13.6-11.7-25.3-25.3-25.3s-25.3 11.7-25.3 25.3 11.7 25.3 25.3 25.3c14.6.9 25.3-10.8 25.3-25.3"/>
    <path class="st0" d="M265.6 109.2v-48l-115.4 69.5h-1L33.8 61.2v48l76.3 46-76.3 46v46.9l115.4-70.4 116.4 70.4v-47.9l-76.3-46z"/>
</svg>