<svg xmlns="http://www.w3.org/2000/svg" viewBox="0 0 300 300">
    <path d="M139.1.6c-8.2 0-9.4 1.2-12.3 4.1h-2.9c-5.9 0-14.1 1.2-20.5 5.3-6.5 4.1-9.4 11.7-5.9 17.6 0 0 2.3-3.5 10-3.5h3.5c10.6 1.2 18.2 7 17.6 21.1-.6 14.7-6.5 31.1-28.8 31.1h-5.9c-10.6-1.2-13.5-7.6-13.5-7.6s8.8-2.3 8.8-14.1c0-7.6-7-14.7-16.4-17.6-3.5-1.2-7-1.2-10.6-1.2-11.7 0-24.7 4.7-32.9 16.4-20 25.8-21.1 64-16.4 99.2s27.6 68.1 28.2 69.3l1.2 1.2s.6 0 .6-.6c10-9.4 18.8-22.3 22.9-31.1 4.1 3.5 1.8 10.6-.6 18.2-2.3 7.6-7.6 18.2-9.4 21.7-1.8 3.5-4.1 7-1.2 8.8.6 0 .6.6 1.2.6 4.1 0 14.7-7.6 25.8-22.9 12.9-17 19.4-32.3 19.4-32.3 1.2 0 2.3 1.8 2.3 5.9 0 4.1-4.7 20.5-13.5 35.8s-17 24.7-18.8 27c-1.2 1.2 0 1.8.6 2.3.6.6 16.4 15.3 39.3 27.6 27 14.1 38.7 17 38.7 17s11.7-2.3 38.7-17c22.9-12.3 38.7-27 39.3-27.6.6-.6 1.8-1.2.6-2.3-1.8-2.3-10-11.7-18.8-27s-13.5-31.7-13.5-35.8c0-4.1 1.2-5.9 2.3-6.5 0 0 6.5 15.3 19.4 32.3 11.7 15.3 21.7 22.9 25.8 22.9.6 0 1.2 0 1.2-.6 3.5-1.8.6-5.9-1.2-9.4-1.8-3.5-7-13.5-9.4-21.7-2.3-7.6-4.7-14.7 0-18.2 4.1 8.8 12.9 21.7 22.9 31.1l.6.6c.6 0 1.2-.6 1.2-1.2.6-1.2 23.5-33.5 28.2-69.3 4.7-35.2 3.5-73.4-16.4-99.2-8.8-10.6-22.3-15.9-33.5-15.9-3.5 0-7 .6-10 1.2-10 2.9-16.4 10-16.4 17.6 0 11.2 8.8 14.1 8.8 14.1s-2.9 6.5-14.1 7.6c-1.8 0-4.1.6-5.9.6-8.2 0-14.7-2.3-21.1-11.7-5.9-8.8-5.9-26.4-6.5-32.3 0-5.9-1.8-19.4-7.6-24.7-6.3-5.7-13.9-7.5-23.3-7.5-.6.6-1.2.6-1.8.6" fill="#00afe9"/>
</svg>