<svg xmlns="http://www.w3.org/2000/svg" viewBox="0 0 300 300">
    <style>.st0{fill:#fafafa}</style>
    <path d="M0 150V0h300v300H0V150z"/>
    <path class="st0" d="M161 194.2c-6.4-2-11.2-5.8-14.9-11.7-4.3-6.9-6.4-21.5-4.5-30.6 1.3-6.3 5-13.4 8.9-16.8 5.1-4.6 9.4-6.3 16.8-6.3 6.9 0 11.6 1.7 15.6 5.4 1.2 1.1 2.4 2 2.6 2 .2 0 .3-6.7.3-15v-15h20.4v87.5h-19.6v-7l-3.1 3.1c-5.4 5.1-14.5 6.9-22.5 4.4zm19.2-16.9c3.3-2.4 4.8-5.1 5.7-10.2 1.5-8.6-.9-17.3-5.7-20.9-3-2.2-9.3-2-12.6.2-7.2 5.2-7.9 22.8-1 29.6 1.4 1.4 3.4 2.8 4.4 2.9 3 .7 7.2 0 9.2-1.6zM103.9 168.5v-25.2H93.6l.2-6.5.2-6.5 4.8-.2 4.9-.2.6-5c.7-7.2 3.8-12.8 8-15.2 4.1-2.3 15.4-3.8 21.7-3l4.5.6v14.1H134c-6.5 0-8.4 1.2-8.7 5.4l-.2 3.3H137v13.4h-11.8l-.2 25-.2 25-10.4.2-10.5.2v-25.4z"/>
</svg>