<svg width="78" height="50" fill="none" xmlns="http://www.w3.org/2000/svg"><path d="M4.027 17.953H.67v14.094h3.356V17.953zM12.248 17.953H8.893v14.094h3.355V17.953zM30.705 17.953h-3.356v14.094h3.356V17.953zM40.604 17.953h-3.356v14.094h3.356V17.953zM46.309 17.953h-3.356v14.094h3.356V17.953zM21.644 17.953H18.29l-4.866 14.094h3.356l4.865-14.094z" fill="#0072B9"/><path d="M18.289 17.953h3.355l4.866 14.094h-3.523l-4.698-14.094zM64.094 17.953h3.86l9.06 14.094h-3.86l-9.06-14.094zM11.547 26.79v-3.356H1.312v3.355h10.235z" fill="#0072B9"/><path d="M23.628 29.816V26.46H16.58v3.356h7.047zM51.49 26.81v-3.02h-7.047v3.02h7.047zM59.731 17.953h-3.355L51.51 32.047h3.523l4.698-14.094z" fill="#0072B9"/><path d="M56.376 17.953h3.355l4.866 14.094h-3.355l-4.866-14.094z" fill="#0072B9"/><path d="M61.816 29.882v-3.355H54.77v3.355h7.047zM35.913 32.142v-3.355h-8.557v3.355h8.557zM53.647 21.247V17.89h-9.732v3.356h9.732zM77.013 17.953h-3.859l-9.06 14.094h3.86l9.06-14.094z" fill="#0072B9"/><path d="M62.584 15.1L77.684 0h-28.02L38.758 10.906l4.195 4.195h19.63z" fill="#0A0443"/><path d="M15.1 34.9L0 50h27.852l10.906-10.906-4.194-4.195H15.1z" fill="#0072B9"/><path d="M42.953 34.9l-4.195 4.194L49.664 50h28.02l-15.1-15.1H42.953z" fill="#0A0443"/><path d="M38.758 10.906L27.852 0H0l15.1 15.1h19.631l4.027-4.194z" fill="#0072B9"/><path d="M42.953 15.1l-4.195-4.194-4.027 4.195h8.222zM34.564 34.9l4.194 4.194 4.195-4.195h-8.39z" fill="#0072B9"/></svg>