<svg xmlns="http://www.w3.org/2000/svg" viewBox="0 0 300 300">
    <path d="M288.6 156.3c5.7 4.2 11.6 7.1 11.6 13.8 0 2-2.5 3.9-7.9 3.9-4.2 0-8.6-1.2-10.8-4.2-1.7-2.2.7-5.4-.7-7.6-1.2-2-3.7-1-5.4-2-2-1.2-2.2-2-3.7-4.9-1.5-3.4-6.6-9.1-12.8-15.2-5.2-5.2-10.6-7.9-13-7.6-1.7.2-2.2.2-3.9.2-4.4 0-8.1 4.2-14.5 6.9-4.4 2-6.9 3-9.6 3.4l-1 1.2 5.7-.2c5.4 0 12.3-.7 17.7-.7 5.4 0 8.1 4.9 10.3 10.1 4.2 10.3 10.3 25.3 17.9 37.9 3.7 5.9 6.6 9.6 6.6 17 0 2.2-.2 5.4-3.2 5.4-4.2 0-14.8-4.4-14.8-9.1 0-3.7 3-5.2 3-8.9 0-2.2-3.4-2-4.2-3.9-2.7-11.1-5.9-22.1-12-28.8-3.2-3.4-3.7-4.9-6.9-4.9-1.7 0-3.4.5-4.9 1-8.6 3.2-20.2 13-34.7 17.2-5.4 1.7-6.4-1.5-12-.5h.5c-4.7 1-8.1 3.7-14.5 5.4-8.6 2.5-23.6 3.7-35.7 2-8.6-1.2-19.7-3-24.3-2.7-3.7 10.3-11.3 24.1-22.9 29.5-6.1 2.7-7.9 6.4-6.1 13.3 2.2 8.6 9.8 14.8 13.8 22.1 3.7 6.1 9.6 16.2 15.7 19.4 6.4 3.3 10.4 8.2 10.1 12.5-.1 1.4-1.4 2.5-2.8 2.5h-12.4c-2 0-3-1.2-3.2-2-1.7-3.2-.5-6.1-3-9.1-1.7-2-3-1.5-5.2-3.2-3.7-3.7-1-5.7-3.7-10.3-7.9-12.5-11.3-15.5-17.9-24.6-3.7-4.7-8.4-7.1-8.4-13.3 0-7.6 7.6-8.9 7.4-16.5-4.9 3.7-10.6 6.4-19.4 7.6-1.2.2-4.2 2.5-5.4 3.9-3 3-4.2 6.1-4.7 10.6-1 10.3-3 20.7-1.7 31 1.7 6.6 3 8.9 8.4 12.5 3.4 2.2 7.4 5.4 7.9 10.3 0 1.2-.5 3-2.2 3H42c-1.2 0-2.5-1-3-1.7-1.5-2.7-.5-4.4-1.2-7.6-1.2-6.1-8.4-5.9-8.4-12.3 0-2 1.2-4.4 1.2-8.4.5-8.6 3-22.9.5-39.8-1.2-9.8 9.1-10.3 14.5-18.9 3.2-4.9 2.2-3 4.2-6.4 2-3.7 1.5-6.4 1.2-8.6 0-3-3-8.9-1-21.1.7-5.4 3.4-11.1 7.1-15.7 0-.2 0-1-1.2-1-5.4.5-5.4-1-8.9-1s-6.1 3-6.6 4.4c-1.7-.7-2.5-2.7-2.5-3.7 0-2 .5-3.7 2.2-5.4.7-.7 0-1.2-1-1.2-4.2 0-8.1 5.2-9.1 8.6-2.5-.5-2.7-3.7-3.7-3.7-1.2 0-2 1.7-2 3.4 0 12 19.7 14.8 19.7 30.7 0 18.4-22.1 14.5-22.1 21.1 0 1.2 1 2.5 2.7 3.2-.7 1.7-2.7 2.5-4.7 2.5-4.9 0-8.6-3.7-8.6-8.6 0-10.1 13.5-10.3 13.5-17.9 0-3.7-2.2-4.7-4.4-6.4C7.8 155 .4 146 .4 131c0-16.2 11.3-28.5 25.8-28.5 21.1 0 21.9 24.6 41.1 26.6 7.1-4.9 15.7-7.9 24.1-7.9 12.5 0 17.9 3.2 31.2 3.2 5.4 0 14.3-1.5 24.8-8.9 3.9-2.7 5.7-3.2 9.3-6.4 8.4-7.1 16.2-21.1 16.2-31.2v.5c0-3.2-.7-5.2-2.2-5.2-4.4 0-8.6 4.2-13 8.6-3 3 1.5 4.4-4.9 7.9-1.6.9-3.4 0-5.2-.6-4.2-1.3-7.5-4.5-8.9-8.6-1.8-5.5 1-5.8 2.6-9 2.7-5.2 2.5-7.1 4.9-12 1.5-3.4 4.2-5.7 3.9-8.1 0-1-.7-1.5-.7-2.5 0-5.2 6.9-8.6 6.9-13.8 0-3-3.2-4.2-3.9-6.4-.7-2.2-.2-3-.2-3 .2-.5.5-.5 1-.5 2.7 0 3.7 3 6.1 4.4.2-3.4-1-4.2-1-6.6 0-1.2-.2-3.4 1.2-3.4 1.7 0 1.5 2.2 3 3.4 2 1.5 3.7 1.2 5.7 2.7 2.7 1.7 4.2 4.7 5.2 4.7 2.7.5 3.4-3 2-4.7 3-.2 6.1 2.2 10.1 2.2 6.1 0 8.4 1.7 9.6 2.7 3.9 3.4 4.7 6.1 9.1 6.1 2.2 0 3.4-2 3.9-2.7 3 2.2 3.2 7.9 0 12.8 1.2 3.9 6.9 4.4 9.6 6.4 2.7 2 2.2 3 4.2 3.9 1.5 1 3 .7 3.9 0 1.2 5.4-3.2 10.1-8.9 10.8.2 6.9 7.4 11.1 10.6 12.8-2 4.2-5.4 5.4-8.4 6.1 1 4.2 5.4 10.3 3.2 15.7-2-1-5.2 0-5.2 3 0 3.4 4.4 5.2-.2 7.6-2 1.2-2.5 4.2 1.2 7.1 4.9-1.2 9.6-1.2 15.2-1.2 3.4 0 7.9-1 11.1-1 5.7 0 9.1 2.2 13.3 6.9 10.4 11.2 20 23.3 30.9 31.4" fill="#231f20"/>
    <path d="M6.6 118.9c2.2 0 6.4-12.6 15-12.6 2.5 0 3 1 3 2 0 1.7-3 3.2-3 5.4 0 .5.2 1 1 1 2 0 3.7-4.7 12.1-4.7 2.2 0 4.2.2 6.2.7 1 .2 3 1.2 2-1.5-2-5.9-8.6-11.3-17.7-11.3s-18.7 8.1-19.7 18c.2 1.7.2 3 1.1 3m157.6-78.3c-2.5-1-3-2.2-2-5.4.5-3.2.7-4.7-.7-4.9-1.2-.5-3 .5-4.7 2.2-1.5 2-3.9 4.7-4.7 6.6-.7 2.7 2.5 2.2.2 6.6-3.9 7.1-4.9 8.9-6.9 13.8-1.7 5.4-3 6.2-3.9 7.9-1.2 1.5 1.5 1.7 4.4.7 3.2-1.2 3.4 2.7 2.2 5.4-1 2-.2 2.7 2.5.5 2.5-2-1.2-3.4-.5-9.6 1-5.4 2-8.6 5.4-14 3-4.7 5.4-8.1 10.3-6.4 2 1 1.1-2.2-1.6-3.4m105.5 161.2c1 0 1.2-1.2 1.2-2.5 0-2.7-1.5-6.6-3.7-8.4-.5 3.9-2.5 6.6-2.5 8.4.1 1.3 3.8 2.5 5 2.5m23.7-38.1c1.5 0 3.7-.5 3.7-1.7 0-2.2-3.4-6.2-6.4-7.1 1.9 3.8-.1 8.8 2.7 8.8m-104.4-52c21.4 9.8 20.2 27.8 21.9 23.4.7-2 3.7-10.8-3.9-19.4-5.9-6.9-8.1-5.2-5.9-10.8 9.4-22.6 15.3-56.8-12.8-68.7-3.2-1.2-5.9-1.2-5.9-.7s3 1.5 6.6 3.9c18.7 12.3 12.8 46-4.2 62.3-5.4 5.6-2.7 6.8 4.2 10m-73.3 158c1.5 0 .7-2.2.2-3.2-1.2-2.2-3.7-3.7-5.9-4.7.5 2.2.7 7.9 3 7.9h3m-65.1 0c1.5 0 .5-2.2-.2-3.2-1.2-2.2-3.9-3.7-6.2-4.7.5 2.2 1 7.9 3.2 7.9h3.2m78.6-129.2c11.8-1.2 13.8-3.9 15.8-12.8 1-4.2 3.9-8.6 6.6-11.3 1.7-2 3.4-3.4 5.2-6.2.5-1.2 1-2 0-1.7-1.2 1-5.4 3.7-7.1 4.9-8.4 5.9-21.2 8.6-26.1 8.6-10.8 0-20.2-3.2-30-3.2-29.5 0-40.6 23.1-39.1 36.7.2 2.2.5 2.2 1.2 2.2 2 0 3.9-7.9 11.3-15 10.8-10.3 22.6-16.2 39.4-16.2 12.1 0 17.2 3.9 17.2 5.4 0 3-5.2 3.2-4.7 6.2-.3 1.2 2.4 3.4 10.3 2.4" fill="#6d6e70"/>
</svg>