<svg xmlns="http://www.w3.org/2000/svg" viewBox="0 0 300 300">
    <style>.st0{fill:#1b458f}</style>
    <path class="st0" d="M0 0h300v223.2H0z"/>
    <path fill="#d32011" d="M0 223.2h300V300H0z"/>
    <path d="M221.6 223.1c5.8 0 11.1-2.4 15.2-6.6 4.1-4.2 7-10.2 7-16.1v-53.8c0-6.6-2.3-12-7-16.7L207.5 100c-1.2-1.2-1.8-3-1.8-4.8V62.4c0-6-2.3-10.8-6.4-14.9s-8.8-6-14.6-6h-23.4c-11.1 0-20.5 9.6-20.5 20.9v1.8c0 1.2-1.2 1.8-2.3 1.8H135c-4.1 0-8.2 1.8-11.1 4.2-1.8 1.8-3.5 3.6-4.1 6h-6.4c-32.8 0-66.7 25.7-66.7 68.7 0 37 30.4 53.2 32.2 54.4 1.2.6 3.5 3 3.5 6v22.1c0 6 2.3 11.4 6.4 15.5 4.1 4.2 9.4 6 14.6 6h81.3c5.8 0 10.5-1.8 14-5.4 4.1-3.6 5.8-9 5.8-14.9v-3c0-1.2 1.2-2.4 2.3-2.4l14.8-.1z" fill="#fff"/>
    <path class="st0" d="M200 189.8v-10.5c0-3-2.2-5.2-5.1-5.2-2.9 0-5.1 2.2-5.1 5.2v10.5c0 3 2.2 5.2 5.1 5.2 2.9 0 5.1-2.2 5.1-5.2m29.2-50.1l-30.7-31.4c-2.2-2.2-2.9-4.5-2.9-7.5V65c0-6-5.1-11.2-10.9-11.2h-21.9c-5.8 0-10.9 5.2-10.9 11.2v10.5c0 1.5-.7 3.7-3.6 3.7h-11.7c-3.6 0-6.6 2.2-7.3 6.7 0 3-1.5 5.2-6.6 4.5h-.7c-3.6-.7-6.6-1.5-10.2-1.5-30.7 0-55.5 25.4-55.5 56.8 0 19.4 8.8 35.9 22.6 46.3.7.7 1.5.7 2.9.7s2.9-.7 3.6-2.2l31.4-48.6s3.6-5.2 9.5-5.2h36.5c2.2 0 3.6-1.5 3.6-3.7v-.7c-3.6-15.7-13.1-29.1-27-36.6-1.5-.7-2.2-1.5-2.2-3 0-2.2 1.5-3.7 3.6-3.7h11.7c4.4 0 8-3.7 8-8.2V67.3c0-2.2 1.5-3.7 3.6-3.7h17.5c2.2 0 3.6 1.5 3.6 3.7v76.2c0 2.2 1.5 3.7 3.6 3.7h31.4c2.2 0 3.6 2.2 3.6 3.7v50.8c0 1.5-1.5 3.7-3.6 3.7h-27c-5.1 0-7.3 3.7-7.3 7.5v13.4c0 2.2-1.5 3.7-3.6 3.7h-29.9v-14.9c0-3-2.2-5.2-5.1-5.2-2.9 0-5.1 2.2-5.1 5.2V230h-36.5c-1.5 0-3.6-1.5-3.6-3.7v-23.2c0-2.2 1.5-3.7 3.6-3.7H148c2.2 0 3.6-2.2 3.6-2.2l29.2-44.8c1.5-2.2-.7-5.2-2.9-5.2h-49.6c-2.2 0-2.9 1.5-3.6 3l-29.9 45.6s-2.2 3.7-2.2 7.5V228c0 6.7 5.1 11.2 11.7 11.2h83.2c3.6 0 8-3 8-8.2v-13.4c0-1.5 1.5-3.7 3.6-3.7h22.6c6.6 0 12.4-5.2 12.4-12V148c-.5-3-2-6-4.9-8.3"/>
</svg>