<svg id="Layer_1" 
    xmlns="http://www.w3.org/2000/svg" 
    xmlns:xlink="http://www.w3.org/1999/xlink" viewBox="0 0 300 300" enable-background="new 0 0 300 300">
    <style>.st2{clip-path:url(#SVGID_2_)}.st7{clip-path:url(#SVGID_15_)}.st12{clip-path:url(#SVGID_25_)}</style>
    <path fill="#fff" d="M128.6 279.9l21.4-37.2 21.4 37.2h85.8l42.8-74.2-42.9-74.2h.1-42.9l21.4-37.2-42.9-74.2h-85.6L64.3 94.3l21.5 37.2h-43L0 205.6v.1l42.8 74.2h85.7z"/>
    <defs>
        <path id="SVGID_1_" d="M214.3 131.5l-21.4 37H150l-21.4 37.1h85.7l42.9-74.1z"/>
    </defs>
    <clipPath id="SVGID_2_">
        <use xlink:href="#SVGID_1_" overflow="visible"/>
    </clipPath>
    <defs>
        <filter id="Adobe_OpacityMaskFilter" filterUnits="userSpaceOnUse" x="96.5" y="75.8" width="192.8" height="185.5">
            <feColorMatrix values="1 0 0 0 0 0 1 0 0 0 0 0 1 0 0 0 0 0 1 0"/>
        </filter>
    </defs>
    <mask maskUnits="userSpaceOnUse" x="96.5" y="75.8" width="192.8" height="185.5" id="SVGID_6_">
        <g filter="url(#Adobe_OpacityMaskFilter)">
            <defs>
                <path id="SVGID_4_" d="M214.3 131.5l-21.4 37H150l-21.4 37.1h85.7l42.9-74.1z"/>
            </defs>
            <clipPath id="SVGID_7_" class="st2">
                <use xlink:href="#SVGID_4_" overflow="visible"/>
            </clipPath>
            <g>
                <defs>
                    <path id="SVGID_8_" d="M214.3 131.5l-21.4 37H150l-21.4 37.1h85.7l42.9-74.1z"/>
                </defs>
                <defs>
                    <path id="SVGID_9_" d="M128.6 94.4h128.5v148.4H128.6z"/>
                </defs>
                <clipPath id="SVGID_10_" class="st2">
                    <use xlink:href="#SVGID_8_" overflow="visible"/>
                </clipPath>
                <clipPath id="SVGID_11_" clip-path="url(#SVGID_10_)">
                    <use xlink:href="#SVGID_9_" overflow="visible"/>
                </clipPath>
                <linearGradient id="SVGID_12_" gradientUnits="userSpaceOnUse" x1="819.174" y1="-642.697" x2="823.648" y2="-642.697" gradientTransform="scale(16.5962) rotate(30 -801.722 -1827.353)">
                    <stop offset="0" stop-color="#1a1a1a"/>
                    <stop offset=".141" stop-color="#222"/>
                    <stop offset=".372" stop-color="#3b3b3b"/>
                    <stop offset=".663" stop-color="#626262"/>
                    <stop offset="1" stop-color="#999"/>
                </linearGradient>
                <path clip-path="url(#SVGID_11_)" fill="url(#SVGID_12_)" d="M144.7-7.7l224.9 129.9-128.5 222.6L16.2 214.9z"/>
            </g>
        </g>
    </mask>
    <linearGradient id="SVGID_13_" gradientUnits="userSpaceOnUse" x1="819.174" y1="-642.697" x2="823.649" y2="-642.697" gradientTransform="scale(16.5962) rotate(30 -801.722 -1827.353)">
        <stop offset="0" stop-color="#e40521"/>
        <stop offset="1" stop-color="#e40521"/>
    </linearGradient>
    <path clip-path="url(#SVGID_2_)" mask="url(#SVGID_6_)" fill="url(#SVGID_13_)" d="M160.7 75.8L289.3 150 225 261.3 96.5 187.1z"/>
    <g>
        <defs>
            <path id="SVGID_14_" d="M64.3 94.3l21.5 37.2h42.8l21.4 37h42.9L150 94.3z"/>
        </defs>
        <clipPath id="SVGID_15_">
            <use xlink:href="#SVGID_14_" overflow="visible"/>
        </clipPath>
        <defs>
            <filter id="Adobe_OpacityMaskFilter_1_" filterUnits="userSpaceOnUse" x="27.8" y="31" width="201.6" height="200.8">
                <feColorMatrix values="1 0 0 0 0 0 1 0 0 0 0 0 1 0 0 0 0 0 1 0"/>
            </filter>
        </defs>
        <mask maskUnits="userSpaceOnUse" x="27.8" y="31" width="201.6" height="200.8" id="SVGID_5_">
            <g filter="url(#Adobe_OpacityMaskFilter_1_)">
                <defs>
                    <path id="SVGID_16_" d="M64.3 94.3l21.5 37.2h42.8l21.4 37h42.9L150 94.3z"/>
                </defs>
                <clipPath id="SVGID_17_" class="st7">
                    <use xlink:href="#SVGID_16_" overflow="visible"/>
                </clipPath>
                <g>
                    <defs>
                        <path id="SVGID_18_" d="M64.3 94.3l21.5 37.2h42.8l21.4 37h42.9L150 94.3z"/>
                    </defs>
                    <defs>
                        <path id="SVGID_19_" d="M58.9 58.3h139.5v146.2H58.9z"/>
                    </defs>
                    <clipPath id="SVGID_20_" class="st7">
                        <use xlink:href="#SVGID_18_" overflow="visible"/>
                    </clipPath>
                    <clipPath id="SVGID_21_" clip-path="url(#SVGID_20_)">
                        <use xlink:href="#SVGID_19_" overflow="visible"/>
                    </clipPath>
                    <linearGradient id="SVGID_22_" gradientUnits="userSpaceOnUse" x1="934.526" y1="-623.972" x2="939" y2="-623.972" gradientTransform="rotate(129.999 5069.896 -8172.624) scale(15.5856)">
                        <stop offset="0" stop-color="#1a1a1a"/>
                        <stop offset=".141" stop-color="#222"/>
                        <stop offset=".372" stop-color="#3b3b3b"/>
                        <stop offset=".663" stop-color="#626262"/>
                        <stop offset="1" stop-color="#999"/>
                    </linearGradient>
                    <path clip-path="url(#SVGID_21_)" fill="url(#SVGID_22_)" d="M328.3 114L146.1 331.1-71.1 148.8 111.1-68.3z"/>
                </g>
            </g>
        </mask>
        <linearGradient id="SVGID_23_" gradientUnits="userSpaceOnUse" x1="934.526" y1="-623.973" x2="939" y2="-623.973" gradientTransform="rotate(129.999 5069.896 -8172.624) scale(15.5856)">
            <stop offset="0" stop-color="#e40521"/>
            <stop offset="1" stop-color="#e40521"/>
        </linearGradient>
        <path clip-path="url(#SVGID_15_)" mask="url(#SVGID_5_)" fill="url(#SVGID_23_)" d="M229.4 125l-89.6 106.8-112-93.9L117.4 31z"/>
    </g>
    <g>
        <defs>
            <path id="SVGID_24_" d="M85.7 205.6l42.9 74.3 21.4-37.2-21.4-37.1 21.4-37.1-21.4-37z"/>
        </defs>
        <clipPath id="SVGID_25_">
            <use xlink:href="#SVGID_24_" overflow="visible"/>
        </clipPath>
        <defs>
            <filter id="Adobe_OpacityMaskFilter_2_" filterUnits="userSpaceOnUse" x="12.6" y="99.8" width="210.5" height="211.8">
                <feColorMatrix values="1 0 0 0 0 0 1 0 0 0 0 0 1 0 0 0 0 0 1 0"/>
            </filter>
        </defs>
        <mask maskUnits="userSpaceOnUse" x="12.6" y="99.8" width="210.5" height="211.8" id="SVGID_3_">
            <g filter="url(#Adobe_OpacityMaskFilter_2_)">
                <defs>
                    <path id="SVGID_26_" d="M85.7 205.6l42.9 74.3 21.4-37.2-21.4-37.1 21.4-37.1-21.4-37z"/>
                </defs>
                <clipPath id="SVGID_27_" class="st12">
                    <use xlink:href="#SVGID_26_" overflow="visible"/>
                </clipPath>
                <g>
                    <defs>
                        <path id="SVGID_28_" d="M85.7 205.6l42.9 74.3 21.4-37.2-21.4-37.1 21.4-37.1-21.4-37z"/>
                    </defs>
                    <defs>
                        <path id="SVGID_29_" d="M40.4 133.4h155v144.7h-155z"/>
                    </defs>
                    <clipPath id="SVGID_30_" class="st12">
                        <use xlink:href="#SVGID_28_" overflow="visible"/>
                    </clipPath>
                    <clipPath id="SVGID_31_" clip-path="url(#SVGID_30_)">
                        <use xlink:href="#SVGID_29_" overflow="visible"/>
                    </clipPath>
                    <linearGradient id="SVGID_32_" gradientUnits="userSpaceOnUse" x1="838.003" y1="-641.22" x2="842.477" y2="-641.22" gradientTransform="rotate(40.001 -10054.83 -31181.677) scale(21.3293)">
                        <stop offset="0" stop-color="#1a1a1a"/>
                        <stop offset=".141" stop-color="#222"/>
                        <stop offset=".372" stop-color="#3b3b3b"/>
                        <stop offset=".663" stop-color="#626262"/>
                        <stop offset="1" stop-color="#999"/>
                    </linearGradient>
                    <path clip-path="url(#SVGID_31_)" fill="url(#SVGID_32_)" d="M99.6-3.8l227.8 191.1-191.3 227.9-227.7-191.1z"/>
                </g>
            </g>
        </mask>
        <linearGradient id="SVGID_33_" gradientUnits="userSpaceOnUse" x1="838.003" y1="-641.221" x2="842.477" y2="-641.221" gradientTransform="rotate(40.001 -10054.83 -31181.677) scale(21.3293)">
            <stop offset="0" stop-color="#e40521"/>
            <stop offset="1" stop-color="#e40521"/>
        </linearGradient>
        <path clip-path="url(#SVGID_25_)" mask="url(#SVGID_3_)" fill="url(#SVGID_33_)" d="M112.3 99.8l110.8 93-99.6 118.8-110.9-93z"/>
    </g>
    <path d="M257.2 279.9h-85.7l-42.8-74.3h85.7l42.8-74.2 42.9 74.2-42.9 74.3zM85.7 205.6l42.8-74.2H42.9L0 205.6l42.9 74.2h85.7l-42.9-74.2zM192.8 20.1l42.9 74.2-42.8 74.2L150 94.3H64.3l42.8-74.2h85.7zm0 0z" fill="#e40521"/>
    <path d="M257.1 131.5l42.9 74.2-42.8 74.2-42.9-74.3 42.8-74.1zM85.7 205.6H0l42.8 74.2h85.7l-42.8-74.2zM150 94.3l42.9 74.2 42.8-74.2-42.9-74.2L150 94.3z" fill="#d20a18"/>
</svg>