<svg xmlns="http://www.w3.org/2000/svg" viewBox="0 0 300 300"><path d="M154.5 27.4c0 33.3 56.6 70.3 56.6 108.3 0 0 0 3.7-1.6 7.6 53 11 90.5 37 90.5 67.4 0 40.9-66.9 74.5-149.7 74.7-.5.3-1 0-1.6 0C66.6 285.4 0 252.9 0 212.2c0-30.4 40.6-55.1 89.7-68.2 0 16.8 55.9 70 57.2 91.5 0 0 .3 1.8.3 3.9 0 1 0 2.1-.3 3.1 12.1-6.3 12.1-26 12.1-26 0-46.7-54.3-67.4-54.3-113.3 0-17.8 8.4-30.9 16-34.6v12.9c0 33.3 58.7 70.5 58.7 101v10c13.6-5.2 13.6-30.2 13.6-30.2 0-42-54.5-65.3-54.5-113.3 0-17.8 8.4-30.9 16-34.6v13" fill="#fe0000"/></svg>