<svg id="Layer_1" xmlns="http://www.w3.org/2000/svg" viewBox="0 0 136.2 50"><style>.st3{fill:#005c9e}.st5{fill:#fff}</style><path d="M111.2 0C102 0 94 5 89.6 12.3c2.2 3.7 3.5 8.1 3.5 12.7s-1.3 8.9-3.5 12.7C94 45 102 50 111.2 50c13.8 0 25-11.2 25-25S125 0 111.2 0z" fill="#26358c"/><path d="M89.6 12.3C85.3 5 77.3 0 68.1 0S50.9 5 46.5 12.3C48.7 16 50 20.4 50 25s-1.3 8.9-3.5 12.7C50.9 45 58.9 50 68.1 50c9.2 0 17.2-5 21.5-12.3-2.2-3.7-3.5-8.1-3.5-12.7.1-4.6 1.3-8.9 3.5-12.7z" fill="#0068b3"/><path d="M46.5 12.3C42.2 5 34.2 0 25 0 11.2 0 0 11.2 0 25s11.2 25 25 25c9.2 0 17.2-5 21.5-12.3C44.3 34 43 29.6 43 25c.1-4.6 1.3-8.9 3.5-12.7z" fill="#36bcee"/><path class="st3" d="M46.5 37.7C48.7 33.9 50 29.6 50 25s-1.3-8.9-3.5-12.7C44.3 16 43 20.4 43 25c.1 4.6 1.3 8.9 3.5 12.7z"/><path class="st3" d="M46.5 37.7C44.2 33.9 43 29.5 43 25s1.2-8.8 3.5-12.7C48.8 16.2 50 20.5 50 25s-1.2 8.8-3.5 12.7zm0-25.4C44.2 16.1 43 20.5 43 25s1.2 8.8 3.5 12.7C48.8 33.8 50 29.5 50 25s-1.2-8.8-3.5-12.7z"/><path d="M89.6 37.7c2.2-3.7 3.5-8 3.5-12.7s-1.3-8.9-3.5-12.7c-2.2 3.7-3.5 8.1-3.5 12.7.1 4.6 1.3 8.9 3.5 12.7z" fill="#002f60"/><path class="st5" d="M34.4 16.3h-7.3v22.3h-5V16.3H15v-4.6h19.4v4.6zM102.5 11.7h9.4c3.6 0 4.5.1 5.8.5 2.7.8 4.6 3.2 4.6 6.1 0 1.2-.2 2.6-1 3.6-.8 1.1-1.9 1.7-3.4 1.9 3 .5 5.6 2.9 5.6 7.1 0 3.1-1.4 5.8-4.6 7-1.7.6-3 .6-6.1.6h-10.3V11.7zm4.9 4.1v6.7h4.6c1.2 0 2.5 0 3.4-.5 1.1-.5 1.8-1.6 1.8-2.8 0-1-.5-2.1-1.6-2.7-1.1-.6-1.6-.6-5.2-.7h-3zm0 10.5v8h4.8c3 0 3.7 0 5.1-.9.7-.5 1.2-1.5 1.2-2.8 0-.6-.1-1.3-.5-2-1.2-2.2-4-2.2-5.7-2.2l-4.9-.1zM70.7 22.6l-2.8-.6c-2.4-.5-4.9-.9-4.9-3.2 0-2.1 2.3-3.3 5-3.3 4 0 5.8 2.4 6.8 3.7l4-3.1c-1.9-2.5-4.9-5.1-10.4-5.1-6.3 0-10.5 3.3-10.5 8.3 0 4.4 3.3 6 4.5 6.5.8.4 1.7.5 3.4 1l3.2.7c2.4.6 2.5.6 3.1.8.8.4 2 1 2 2.7 0 .9-.4 2.3-2.3 3-1 .4-1.9.5-2.9.5-5.3 0-7.4-2.8-8.1-3.9l-4.1 3.1c2 3.1 4.9 4.2 6.6 4.7 1.6.5 3.3.6 4.7.6 5.7 0 11.3-2.4 11.3-8.6 0-5.5-5-7-8.6-7.8z"/></svg>