<svg xmlns="http://www.w3.org/2000/svg" viewBox="0 0 300 300">
    <path d="M275.8 145.6h-48.1c-10.3 0-19.7-6.1-22.8-15.2-8.7-25.4-33.7-34.5-33.7-34.5-9.2-3.4-16-12.2-16-22.8V25c0-13.2 11.1-23.9 24.3-23.9 13.2 0 23.9 9.9 23.9 23.9l-.4 38.6 55.7-55.7c9.3-9.4 24.5-9.5 33.9-.2l.2.2c9.5 9.5 9.5 25.1 0 34.5L238 97h37.8c13.2 0 24.2 11.1 24.2 24.3s-11 24.3-24.2 24.3zm-.4 58.5l-38.6-.4 55.6 55.8c9.5 9.4 9.5 24.7 0 34.2-9.4 9.4-24.6 9.4-34.1 0l-54.9-55.1v38c0 14.4-11 24.2-24.3 24.2-13.2 0-24.2-11-24.2-24.2v-48.2c0-10.2 6.4-19.7 15.6-22.7 25.4-8.8 34.1-33.7 34.1-33.7 3.4-9.2 12.5-16 22.7-16h48.1c13.3 0 24.3 11.1 24.3 24.3 0 13.1-9.9 23.8-24.3 23.8zm-154.9 96.3c-13.3 0-23.9-8.8-23.6-23.9l.4-38.7-55.7 55.8c-9.4 9.4-24.9 9.4-34.1 0-9.4-9.5-9.4-25.1 0-34.2l54.6-55.1H24.6C11 204.3.4 193.3.4 180.1s10.5-24.3 24.2-24.3h48.2c10.2 0 19.3 6.1 22.7 15.3 8.7 25.7 33.4 34.5 33.4 34.5 9.5 3.4 15.9 12.2 15.9 22.7v48.2c-.1 13.3-10.6 23.9-24.3 23.9zm8.7-204.1c-25.4 9.2-34 33.8-34 33.8-3.4 9.1-12.6 15.9-22.8 15.9H24.3C11 146 0 135 0 121.7c0-13.2 9.2-23.8 24.3-23.8l38.6.3L7.2 42.4C-2.1 33.1-2.3 18 7 8.6l.2-.2c9.3-9.4 24.5-9.5 33.9-.2l.2.2 54.9 55v-38c0-13.2 10.7-24.2 24.3-24.2 13.2 0 23.9 11 23.9 24.2v48.2c0 10.2-6.1 19.7-15.2 22.7" fill="#003c7c"/>
</svg>